<?xml version="1.0" standalone="no"?><!DOCTYPE svg PUBLIC "-//W3C//DTD SVG 1.1//EN" "http://www.w3.org/Graphics/SVG/1.1/DTD/svg11.dtd"><svg t="1769311715071" class="icon" viewBox="0 0 1024 1024" version="1.1" xmlns="http://www.w3.org/2000/svg" p-id="1789" xmlns:xlink="http://www.w3.org/1999/xlink" width="256" height="256"><path d="M322.56 518.7072a30.72 30.72 0 0 1 26.0096 14.3872 191.2832 191.2832 0 0 0 326.2976 0 30.72 30.72 0 0 1 26.0096-14.3872h116.8896V228.352a89.4976 89.4976 0 0 0-89.4976-89.4976H295.3216A89.4976 89.4976 0 0 0 205.7728 228.352v290.3552z" fill="#E6E6FF" p-id="1790"></path><path d="M627.456 144.3328s91.5968 14.6944 91.5968 91.5968v329.0624h96.1024V230.4c0-53.2992-42.9568-110.9504-187.6992-86.0672z" fill="#C9C9F4" p-id="1791"></path><path d="M391.1168 144.3328S299.52 159.0272 299.52 235.9296v329.0624H203.4176V230.4c0-53.2992 42.9568-110.9504 187.6992-86.0672z" fill="#F8F8FF" p-id="1792"></path><path d="M700.9792 518.7072a30.72 30.72 0 0 0-26.0096 14.3872 191.2832 191.2832 0 0 1-326.2976 0 30.72 30.72 0 0 0-26.112-14.3872H192.3072A79.6672 79.6672 0 0 0 112.64 598.3744v183.0912a113.2544 113.2544 0 0 0 113.2544 113.2544h571.8528a113.2544 113.2544 0 0 0 113.2544-113.2544v-183.0912a79.616 79.616 0 0 0-79.6672-79.6672z" fill="#FFE8B2" p-id="1793"></path><path d="M256 533.504s-65.9456 6.8096-65.9456 65.9968v194.8672c0 28.6208 11.6736 70.8608 84.0192 92.7232-84.4288 0-149.9136-23.1424-149.9136-105.0624v-196.5056c-0.2048-29.3888 23.808-74.6496 131.84-52.0192z" fill="#FFF2D7" p-id="1794"></path><path d="M766.976 533.504s65.9456 6.8096 65.9456 65.9968v194.8672c0 28.6208-11.6736 70.8608-84.0192 92.7232 84.4288 0 149.9136-23.1424 149.9136-105.0624v-196.5056c0-29.3888-24.0128-74.6496-131.84-52.0192z" fill="#E8BC70" p-id="1795"></path><path d="M386.304 303.3088h250.88a25.6 25.6 0 1 0 0-51.2h-250.88a25.6 25.6 0 0 0 0 51.2z" fill="#434A54" p-id="1796"></path><path d="M843.4688 493.824V228.352a115.2512 115.2512 0 0 0-115.0976-115.0976H295.3216A115.2512 115.2512 0 0 0 180.1728 228.352v265.472A105.4208 105.4208 0 0 0 87.04 598.3744v183.0912a138.9568 138.9568 0 0 0 138.8544 138.8544h571.8528a138.9568 138.9568 0 0 0 138.8544-138.8544v-183.0912a105.4208 105.4208 0 0 0-93.1328-104.5504zM231.3728 228.352a64 64 0 0 1 63.9488-63.8976h433.0496a64 64 0 0 1 63.8976 63.8976v264.7552h-91.2896a56.32 56.32 0 0 0-47.8208 26.5728A164.608 164.608 0 0 1 512 599.04a170.4448 170.4448 0 0 1-32.0512-3.0208 172.6464 172.6464 0 0 1-20.48-5.12 165.0176 165.0176 0 0 1-88.9856-71.2192c-0.768-1.2288-1.6384-2.3552-2.4576-3.4816s-1.0752-1.6384-1.6896-2.3552a56.6272 56.6272 0 0 0-43.5712-20.48H231.3728z m654.0288 552.96a87.7568 87.7568 0 0 1-87.6544 87.6544H225.8944A87.7568 87.7568 0 0 1 138.24 781.4656v-183.0912a54.1184 54.1184 0 0 1 54.0672-54.0672H322.56a5.12 5.12 0 0 1 4.1984 2.1504 216.576 216.576 0 0 0 334.9504 43.5712c0.256 0 0.512-0.512 0.768-0.768 3.5328-3.4304 6.912-6.9632 10.24-10.6496a221.0816 221.0816 0 0 0 24.064-32.1536v-0.3072a5.12 5.12 0 0 1 3.9424-1.8432h130.3552a54.1184 54.1184 0 0 1 54.0672 54.0672z" fill="#434A54" p-id="1797"></path></svg>
