<?xml version="1.0" standalone="no"?><!DOCTYPE svg PUBLIC "-//W3C//DTD SVG 1.1//EN" "http://www.w3.org/Graphics/SVG/1.1/DTD/svg11.dtd"><svg t="1769368904963" class="icon" viewBox="0 0 1024 1024" version="1.1" xmlns="http://www.w3.org/2000/svg" p-id="7047" xmlns:xlink="http://www.w3.org/1999/xlink" width="256" height="256"><path d="M184.32 0h655.36Q1024 0 1024 184.32v655.36Q1024 1024 839.68 1024H184.32Q0 1024 0 839.68V184.32Q0 0 184.32 0z" fill="#FFFFFF" p-id="7048"></path><path d="M519.232 238.72a123.008 123.008 0 1 0 0 246.08 123.008 123.008 0 0 0 0-246.08z m0-110.72a233.728 233.728 0 1 1 0 467.52 233.728 233.728 0 0 1 0-467.52z" fill="#61C3FA" p-id="7049"></path><path d="M892.16 772.992a215.552 215.552 0 0 1-304.384-10.624 55.36 55.36 0 0 1 81.024-75.52 104.576 104.576 0 1 0 5.12-147.84 55.36 55.36 0 0 1-75.52-80.96 215.296 215.296 0 0 1 293.76 314.88zM285.44 509.376a110.72 110.72 0 1 0 0 221.44 110.72 110.72 0 0 0 0-221.44z m0-110.72a221.44 221.44 0 1 1 0 442.88 221.44 221.44 0 0 1 0-442.88z" fill="#61C3FA" p-id="7050"></path><path d="M430.08 787.84l-79.104-77.568L601.6 454.336l79.104 77.504-250.688 256z" fill="#61C3FA" p-id="7051"></path><path d="M519.232 595.52A234.048 234.048 0 0 1 285.44 361.728a55.36 55.36 0 0 1 110.72 0 123.008 123.008 0 0 0 246.08 0 55.36 55.36 0 1 1 110.72 0 234.048 234.048 0 0 1-233.728 233.792z" fill="#EC5A70" p-id="7052"></path><path d="M378.88 942.08H512V1024H378.88a40.96 40.96 0 1 1 0-81.92z" fill="#EB566F" p-id="7053"></path><path d="M512 942.08h133.12a40.96 40.96 0 0 1 0 81.92H512v-81.92z" fill="#448BF7" p-id="7054"></path></svg>