<?xml version="1.0" standalone="no"?><!DOCTYPE svg PUBLIC "-//W3C//DTD SVG 1.1//EN" "http://www.w3.org/Graphics/SVG/1.1/DTD/svg11.dtd"><svg t="1769368967850" class="icon" viewBox="0 0 1024 1024" version="1.1" xmlns="http://www.w3.org/2000/svg" p-id="10261" xmlns:xlink="http://www.w3.org/1999/xlink" width="256" height="256"><path d="M485.973 938.453l-14.933-1.408a414.421 414.421 0 0 1-118.016-30.037c-31.659-13.397-68.267-34.56-81.92-47.36a366.805 366.805 0 0 0-16.853-14.25c-84.054-67.2-139.094-172.289-147.926-282.454l-1.152-14.336 0.555-27.05 0.512-27.051 1.536-11.734c17.152-131.157 91.179-242.73 202.837-305.706l11.094-6.23 11.093-11.093c37.248-37.333 81.11-62.635 125.696-72.405l5.76-1.28h72.277l10.795 3.114 10.837 3.115 9.515 4.907c10.325 5.333 20.907 12.842 28.715 20.437l4.992 4.821 2.218-0.512c1.28-0.298 5.675-1.408 9.899-2.56l7.595-2.005h15.146l5.718 2.347 5.76 2.304 9.429 8.021c11.99 10.24 12.8 10.795 27.733 19.115 17.75 9.898 26.155 16.213 38.912 29.226 6.144 6.272 13.952 13.398 17.408 15.83 88.32 62.464 146.262 148.224 168.107 248.746 32.043 147.456-18.048 297.302-132.608 396.715a100.053 100.053 0 0 0-10.752 10.197 63.488 63.488 0 0 1-9.472 8.022 404.608 404.608 0 0 1-201.643 78.89l-15.445 1.622-25.045 0.213c-13.782 0.085-26.539 0-28.416-0.128z m70.4-419.157c1.28-10.624-0.853-19.925-3.584-15.488-0.981 1.579-1.109 11.392-0.213 14.08 0.683 1.963 3.584 3.072 3.755 1.408z m87.723-30.72c3.157-2.859 1.621-7.083-2.56-7.083-4.096 0-5.76 4.267-2.859 7.168 1.963 1.92 3.2 1.878 5.419-0.085z m-226.261-18.005a3.243 3.243 0 0 0-0.256-2.56l-0.768-1.195-1.067 0.64c-0.597 0.384-1.067 1.493-1.067 2.56v1.835H416a2.133 2.133 0 0 0 1.835-1.28zM537.94 322.603a9.813 9.813 0 0 0 0.982-3.84v-2.006h-3.84v7.68h0.896c0.512 0 1.408-0.81 1.962-1.834z m27.947-3.926v-1.92h-15.403v3.84h15.403v-1.877z m-10.752-10.496l1.365-0.768-1.024-0.64c-1.28-0.81-0.426-3.498 1.152-3.498 0.598 0 1.664-0.854 2.347-1.963l1.237-2.005 2.56 0.298 2.646 0.299 0.298 2.645 0.299 2.646h3.755v-1.792c0-1.024 0.64-3.072 1.408-4.566 1.834-3.541 1.834-5.205 0-5.205h-1.451v-2.219a5.12 5.12 0 0 1 1.45-3.498c2.56-2.134-0.98-5.803-3.84-3.968a11.69 11.69 0 0 1-3.84 0.853 320.555 320.555 0 0 0-7.978 0.81l-5.035 0.555v3.67h4.182c4.821 0 5.418 0.426 4.736 2.986-0.555 2.176-2.688 2.432-3.499 0.427-0.299-0.853-0.981-1.493-1.493-1.493h-0.982l0.555 2.816 0.555 2.816-1.963 1.024a12.97 12.97 0 0 1-5.12 1.066h-3.115l1.152 1.152c1.494 1.536 1.451 4.566-0.085 5.12-0.683 0.299-1.323 1.408-1.408 2.56l-0.17 2.006 4.949-0.683a27.093 27.093 0 0 0 6.357-1.408z m-16.213-2.986v-3.84h-7.68v7.68h7.68v-3.84z m7.68-9.6v-1.963h-3.84v3.84h3.84v-1.877z m32.768-15.446v-1.92h-5.76v3.84h5.76v-1.92z" fill="#CAE3FD" p-id="10262"></path><path d="M480.64 85.333l-13.013 1.707-13.014 1.621-12.202 3.755c-15.915 4.907-31.488 11.52-46.763 19.968-26.581 14.72-58.71 41.259-74.24 61.355-2.475 3.157-7.168 8.96-10.453 12.8-14.635 17.28-39.168 58.965-47.104 80.128a383.872 383.872 0 0 1-4.31 10.624c-14.933 35.456-31.189 93.61-34.688 124.245-4.906 42.923-6.4 99.755-3.37 124.245 0.256 1.878 0.682 7.936 1.024 13.483 0.298 5.547 1.152 18.347 1.92 28.459 0.725 10.069 1.792 29.568 2.346 43.349 1.622 38.656 2.902 58.112 4.054 60.672l1.109 2.347 6.827 2.816c3.754 1.536 12.245 3.968 18.858 5.418 6.614 1.408 13.227 2.902 19.84 4.395 4.267 0.981 14.251 2.901 22.187 4.267 7.893 1.408 20.864 3.797 28.8 5.333 7.936 1.493 17.28 2.901 20.693 3.072l6.272 0.299 0.47-6.742 0.512-6.741 16.341 0.256c9.045 0.17 20.053 0.725 24.576 1.195 4.523 0.512 14.677 1.152 22.613 1.45 7.979 0.299 17.195 0.768 20.48 1.067l6.059 0.512v6.912c-0.128 31.488-10.667 62.165-26.88 78.421l-6.059 6.016-2.56 0.512a28.843 28.843 0 0 0-14.293 6.016c-9.557 7.424-18.261 12.246-61.739 33.963-43.05 21.504-60.885 31.573-62.25 35.157l-0.64 1.707 2.176 2.347c1.237 1.28 6.314 5.12 11.349 8.405a406.272 406.272 0 0 0 204.245 67.925c16.128 0.939 44.16 0.427 52.31-1.024a130.56 130.56 0 0 1 14.421-1.28c16.47-0.554 55.893-8.533 77.525-15.616 48.64-16.042 95.744-40.661 126.635-66.133l4.608-3.755v-1.792c0-0.981-3.541-7.04-7.808-13.397l-7.808-11.605-6.87-6.358c-11.52-10.581-19.2-13.397-46.293-16.768a675.499 675.499 0 0 1-64.17-10.24l-9.131-1.664-7.723-3.584c-4.266-1.962-10.24-4.266-13.397-5.12l-5.675-1.45-4.181-4.096-4.181-4.096-3.926-7.552-3.925-7.552-2.347-9.387c-3.541-14.037-5.546-40.875-3.285-43.136l0.981-0.981 5.974 0.725c3.328 0.427 17.493 1.664 31.573 2.73l38.57 2.987 13.1 1.067 25.94-1.067c34.347-1.408 31.745-0.426 30.294-11.861a375.808 375.808 0 0 1-0.981-29.867v-22.826l2.432-15.659c1.365-8.619 3.626-20.267 5.12-25.813l2.56-10.112 13.482-1.707 13.483-1.707 9.643-2.944c10.794-3.328 15.36-5.674 24.746-12.714l6.486-4.864 3.84-5.462c7.082-10.069 10.624-21.674 10.666-34.688v-8.234l-1.493-5.675a65.28 65.28 0 0 0-4.565-11.52l-3.115-5.845-6.656-7.04-6.656-6.998-7.296-4.778c-11.093-7.254-11.648-7.68-11.648-9.216a33.28 33.28 0 0 1 3.84-7.851c5.333-8.832 9.643-20.395 11.221-30.123l1.28-8.192 0.64-22.144 0.598-22.186-1.11-10.539a386.048 386.048 0 0 0-3.114-21.675c-1.75-9.856-3.243-16-10.411-43.008a187.221 187.221 0 0 1-3.413-20.736l-1.536-13.824-3.712-13.952c-5.035-18.773-8.406-27.221-16.683-41.728l-6.955-12.245-6.272-7.467a179.883 179.883 0 0 0-61.653-48.554l-8.192-4.224-8.96-8.491-8.875-8.448-5.333-2.39-5.333-2.346H617.77l-7.168 2.432c-8.704 2.901-9.259 2.944-11.563 0.341a170.453 170.453 0 0 0-11.477-9.728l-9.643-7.68-11.093-5.546-11.051-5.547-11.52-3.115-11.605-3.114-26.027-0.512-25.941-0.47z m-4.437 374.955h0.981c1.493 0 3.925 9.387 4.01 15.36a29.867 29.867 0 0 0 0.769 7.168l0.725 1.792-2.133 4.31a17.11 17.11 0 0 1-3.414 5.162c-3.968 2.56-4.266 1.45-1.706-6.059l1.962-5.888 0.171-7.296a65.707 65.707 0 0 0-0.597-10.922l-0.768-3.627z m-60.587 5.12c1.493-0.427 3.2 0.256 3.925 2.261l0.768 2.048-1.45 2.048c-2.347 3.371-6.144 1.92-6.144-2.389 0-2.176 1.365-3.627 2.858-4.01z m278.87 12.885l1.28 1.494c2.602 3.2 3.583 11.221 2.005 16.64a22.699 22.699 0 0 1-3.584 6.997l-2.219 2.645 0.683-3.413c0.384-1.835 0.938-8.107 1.28-13.867l0.554-10.496z m-55.34 2.219h2.305c4.394 0 6.826 4.608 4.138 7.893-2.56 3.243-7.68 2.56-8.874-1.109l-0.64-2.048 1.536-2.347 1.536-2.389z m-85.333 22.272c2.176-1.067 3.67 7.253 2.56 16.512-0.213 1.664-3.114 0.555-3.84-1.45-0.853-2.646-0.725-12.46 0.256-14.038a2.603 2.603 0 0 1 0.982-1.024z m-9.173 409.301c0.427 0-1.195 1.963-3.584 4.31-5.59 5.632-6.272 5.717-3.541 0.426 1.28-2.517 4.693-4.736 7.125-4.736z" fill="#EEC5B9" p-id="10263"></path><path d="M484.523 937.472c-74.838-5.973-141.526-28.928-200.662-68.992-9.898-6.741-11.904-8.747-11.05-11.179 1.109-3.114 20.65-14.037 62.592-35.029 43.264-21.675 52.266-26.581 60.757-33.323a23.723 23.723 0 0 1 14.037-5.973h3.286l4.864-4.352c16.512-14.848 26.453-41.301 28.672-76.373l0.64-10.496-1.195-0.726a164.352 164.352 0 0 0-20.181-1.536c-10.411-0.426-23.467-1.237-29.014-1.792a368.427 368.427 0 0 0-25.472-1.28l-15.402-0.256-0.47 6.784-0.512 6.742-6.272-0.299c-3.413-0.128-12.757-1.579-20.693-3.2-8.32-1.664-16.64-3.243-25.045-4.693a1100.032 1100.032 0 0 1-34.816-7.168l-24.192-5.291-5.248-2.304-5.248-2.347-1.622-5.674c-2.176-7.894-2.432-10.795-3.584-40.32a2200.107 2200.107 0 0 0-4.736-87.68l-2.09-27.862v-22.186c0-31.488 3.285-72.96 6.869-86.272a145.493 145.493 0 0 0 1.963-15.915c0.512-6.827 1.578-14.976 2.346-18.176l4.352-19.285c7.595-33.75 17.664-63.446 32.811-96.854C308.48 169.984 380.501 106.24 456.533 89.173l8.662-1.92 31.872-0.426 31.914-0.427 12.672 3.03 12.672 3.071 10.368 5.12c11.094 5.462 18.219 10.326 29.696 20.352l7.339 6.4 8.32-2.773 8.32-2.773 9.643 0.042 9.6 0.086 5.802 2.986 5.76 2.987 6.784 7.04 6.784 7.083 12.971 6.826c57.173 30.038 88.96 75.819 93.355 134.272l0.938 12.075 3.84 12.032a358.857 358.857 0 0 1 11.776 48.17l2.219 12.971v52.992l-1.28 9.088a99.243 99.243 0 0 1-13.141 35.542 13.483 13.483 0 0 0-2.39 5.589v2.133l8.192 5.462c7.51 5.077 19.755 16.64 19.755 18.773 0 0.47-2.816-0.427-6.272-2.09l-6.272-2.945-2.261 0.598-2.262 0.554-1.664 4.608c-0.896 2.518-2.005 5.419-2.474 6.486a30.464 30.464 0 0 0-1.451 4.949 11.477 11.477 0 0 1-2.944 5.248c-1.28 1.195-2.347 3.072-2.347 4.096a6.357 6.357 0 0 1-1.28 3.456c-1.92 2.347-7.936 17.067-10.24 25.13a69.504 69.504 0 0 1-3.498 9.857c-0.854 1.493-1.195 3.072-0.896 3.584 0.298 0.469-0.171 2.688-1.067 4.864l-1.579 3.968 1.024 2.133c0.555 1.152 1.28 2.901 1.579 3.925l0.597 1.792 5.974-0.554c16.853-1.664 31.573-8.747 39.253-18.902l3.243-4.309 0.384 1.152c0.213 0.597-0.854 3.328-2.304 6.059l-2.731 4.949-5.461 4.95c-13.312 12.031-28.502 18.047-52.608 20.906-5.462 0.683-10.24 1.707-10.71 2.261-1.493 1.878-6.741 24.832-8.746 38.358L720 643.285v22.87c0 12.629 0.427 26.026 0.939 29.866 1.493 11.52 4.096 10.496-30.294 11.904l-25.898 1.067-13.099-1.024-38.57-3.03c-14.08-1.066-28.246-2.303-31.574-2.73a20.437 20.437 0 0 0-7.125-0.043l-1.11 0.683 0.555 14.805 0.512 14.763 2.133 10.112 2.091 10.112 3.584 7.723 3.627 7.722 5.29 5.718 5.291 5.674 3.115 0.256c4.864 0.299 7.68 1.238 15.957 5.12l7.765 3.584 9.131 1.707a674.987 674.987 0 0 0 64.17 10.24c27.094 3.328 34.731 6.144 46.294 16.725l6.87 6.358 7.807 11.605c4.267 6.4 7.808 12.203 7.808 12.928 0 4.48-36.352 29.227-65.536 44.63-42.581 22.485-110.165 42.495-143.53 42.58-3.968 0-10.582 0.64-14.763 1.451l-7.552 1.451-22.784-0.17a824.15 824.15 0 0 1-26.667-0.47z m70.314-8.107l1.792-1.92-1.152-1.109-1.152-1.152-0.853 0.896a9.728 9.728 0 0 0-1.493 3.115l-0.64 2.133h0.853c0.512 0 1.707-0.853 2.645-1.92z m-9.429-14.89c4.821-2.262 5.205-3.371 1.195-3.371-6.144 0-11.52 5.12-11.52 10.88 0 4.053 1.28 3.712 3.797-0.981l2.475-4.566 4.053-1.962z m9.173-26.454c19.286-1.877 33.664-6.912 45.526-15.872l5.76-4.394 4.096-5.974 4.096-6.058 2.389-7.723c2.56-8.235 4.096-20.736 3.03-24.917l-0.64-2.56-9.814-4.822c-5.59-2.73-11.093-5.546-16.64-8.362a285.525 285.525 0 0 0-10.112-4.992 34.475 34.475 0 0 1-6.101-3.712 9.77 9.77 0 0 0-4.48-2.134 13.013 13.013 0 0 1-4.523-1.365 90.889 90.889 0 0 0-5.12-2.347l-3.84-1.536a60.245 60.245 0 0 1-5.29-2.901 106.837 106.837 0 0 0-6.785-3.755 46.763 46.763 0 0 1-6.186-3.882 13.056 13.056 0 0 0-4.523-2.56c-0.683 0-2.39-1.067-3.84-2.39-1.408-1.28-3.413-2.389-4.523-2.389a7.21 7.21 0 0 1-4.01-1.92l-2.048-1.92-2.859-0.128a29.312 29.312 0 0 1-4.608-0.597l-1.835-0.47 1.323-0.938 1.365-0.896-3.84 0.426-14.25 1.707-10.326 1.28-0.554 1.664-0.512 1.664-2.859 0.597c-1.579 0.342-2.859 1.024-2.859 1.536 0 0.47-0.298 0.811-0.725 0.726-1.28-0.342-6.4 2.474-10.453 5.674a27.563 27.563 0 0 1-4.438 3.158 24.747 24.747 0 0 0-4.224 3.413 23.168 23.168 0 0 1-7.296 4.437 15.275 15.275 0 0 0-5.717 3.371c-1.195 1.237-2.645 2.261-3.2 2.261a26.795 26.795 0 0 0-6.187 3.371 26.581 26.581 0 0 1-6.229 3.37c-1.28 0-9.216 7.425-13.867 12.971l-3.157 3.712v2.304c0 9.302 25.557 37.76 42.41 47.275 2.902 1.621 10.667 4.992 17.28 7.467l11.99 4.48 11.093 2.218c6.144 1.28 12.246 2.432 13.568 2.688 4.608 0.854 35.2 0.64 44.544-0.298z m1.195-201.386l6.741-0.982 14.848-7.253c8.107-3.968 16.47-8.661 18.475-10.368 2.048-1.707 4.864-3.755 6.315-4.523 1.408-0.768 5.12-3.797 8.192-6.698 7.253-6.827 10.197-8.96 14.293-10.582a33.067 33.067 0 0 0 6.955-4.01 15.019 15.019 0 0 1 4.608-2.731 18.09 18.09 0 0 0 5.12-4.523c2.218-2.517 5.034-5.504 6.229-6.656a9.728 9.728 0 0 0 2.56-4.053c0.597-2.816 2.773-5.973 4.181-5.973 0.64 0 1.195-0.64 1.195-1.451 0-1.707 4.395-6.443 7.467-8.107a6.4 6.4 0 0 0 2.773-3.584 34.816 34.816 0 0 1 3.157-6.826l3.67-6.358a11.52 11.52 0 0 1 2.474-3.029c1.622-1.195 2.688-6.144 1.536-6.827-0.469-0.298-0.853-1.365-0.853-2.389v-1.835l-2.901-2.133-2.944-2.176 0.469-1.28 0.512-1.195h-1.92c-1.067 0-2.176-0.64-2.475-1.45-0.298-0.768-2.005-1.92-3.754-2.56l-3.2-1.152-1.024-2.262c-0.555-1.237-1.707-2.218-2.56-2.218h-1.494l-1.365-3.158c-1.835-4.138-3.328-5.802-6.315-7.125-1.365-0.597-2.56-1.707-2.602-2.39a82.133 82.133 0 0 0-1.494-6.826l-1.408-5.461 1.28-1.707c2.134-2.816 1.664-4.01-2.56-6.144a41.259 41.259 0 0 1-15.872-15.915l-3.328-5.973-1.408-6.613a78.123 78.123 0 0 1-1.408-13.184v-6.528l-0.896 0.554c-1.322 0.768-4.096 9.643-4.778 15.275l-0.598 4.864-2.901 0.768-2.859 0.725-0.938-0.938a20.907 20.907 0 0 1-1.28-7.424 22.528 22.528 0 0 0-1.28-7.424 4.352 4.352 0 0 1-0.854-2.56 12.416 12.416 0 0 0-1.706-4.566l-1.622-2.901 1.152-3.243a19.797 19.797 0 0 0 1.195-4.949c0-0.939 0.64-2.347 1.45-3.157l1.451-1.451v-6.528l2.006-1.067c1.109-0.597 2.602-0.853 3.37-0.554l1.366 0.554v-3.797l3.626-3.328 3.584-3.285 3.115-0.598 3.072-0.597 1.963-2.773 2.005-2.774 6.955-2.005c3.84-1.11 8.192-2.432 9.685-2.944a7.85 7.85 0 0 1 4.096-0.341c0.768 0.298 2.39-0.086 3.541-0.854l2.176-1.365 6.059 0.17c3.328 0.129 6.23-0.127 6.485-0.554 0.256-0.427 1.323-0.512 2.39-0.256l1.92 0.512v-3.115h1.834a4.437 4.437 0 0 0 2.987-1.45l1.195-1.451h7.424l3.37-2.987c3.328-2.901 5.803-3.072 4.694-0.341l-0.512 1.408h1.024a2.133 2.133 0 0 0 1.621-0.981c0.341-0.555 1.75-0.854 3.2-0.726l2.56 0.256 0.299-2.133 0.298-2.176h1.878c2.432 0 2.389-1.621-0.086-2.432-1.024-0.341-1.92-0.981-1.92-1.45 0-1.451-6.954-2.86-15.274-3.115-4.267-0.128-7.851-0.598-7.851-1.067v-0.81l-5.973 0.767c-3.371 0.427-8.107 0.683-10.667 0.598a29.696 29.696 0 0 0-8.875 1.28l-4.352 1.493-8.106 0.17-8.107 0.214-2.73-2.005a25.77 25.77 0 0 1-4.865-5.206l-2.176-3.2v-7.466l1.878-3.67c3.84-7.509 10.88-11.946 22.656-14.208l6.784-1.322h24.49l13.739 2.986c7.595 1.579 16.768 3.286 20.395 3.712l6.656 0.811 2.73-0.981 2.774-0.939v-10.923l-1.92-1.706-1.92-1.622v-6.528l-3.03-6.613a47.104 47.104 0 0 0-5.674-9.515 192.299 192.299 0 0 1-7.851-9.813 308.053 308.053 0 0 0-38.4-39.68c-15.019-12.672-16.213-13.525-37.035-27.52a292.95 292.95 0 0 1-21.888-15.701l-3.584-3.414-5.12-0.426-5.077-0.427-12.501 2.56c-27.051 5.59-52.822 17.152-72.022 32.256a277.035 277.035 0 0 1-9.728 7.253c-7.808 5.504-21.034 19.627-24.618 26.283a51.968 51.968 0 0 1-4.779 6.357c-2.048 2.347-5.163 7.254-6.912 10.795l-3.157 6.485-0.982 8.406c-1.322 11.818-0.853 12.458 10.923 14.506 22.443 4.011 37.547 14.507 37.547 26.112v4.139l-1.963 3.285-2.005 3.243-6.443-0.555a62.55 62.55 0 0 1-12.63-2.645 184.107 184.107 0 0 0-15.743-4.267l-9.558-2.176-3.498 0.427c-4.779 0.512-7.467 1.963-8.704 4.693l-1.067 2.347 0.597 4.31c0.342 2.389 1.195 4.82 1.92 5.418 0.726 0.597 1.28 1.792 1.28 2.603 0 1.706 4.694 6.912 6.23 6.954 2.133 0 12.416 7.552 18.901 13.824 5.547 5.334 11.05 9.259 13.056 9.259h2.005l1.792 3.968c0.982 2.133 2.987 5.205 4.395 6.741 4.267 4.523 6.57 15.019 6.613 29.568v8.022l-1.024 1.962-1.066 1.963-3.926-4.096-3.968-4.096-1.194-4.65a58.496 58.496 0 0 0-12.459-21.078l-3.541-3.37 0.597 2.9 1.664 8.193 1.067 5.29-0.64 5.76-0.598 5.803-2.901 7.339-2.944 7.338-4.693 5.248a84.053 84.053 0 0 1-13.014 10.88l-8.32 5.59 0.427 3.498c0.213 1.878 0 4.651-0.512 6.102l-0.896 2.645h-1.963a28.587 28.587 0 0 0-8.362 4.01l-6.358 4.054-2.645-0.213-2.645-0.171v1.493c0 0.811-0.768 1.792-1.707 2.176-2.048 0.854-10.837 10.112-10.837 11.478a18.987 18.987 0 0 1-4.267 7.978l-1.408 1.152 1.152 1.835 1.152 1.835-1.195 1.92c-1.792 2.901-1.493 4.437 1.707 8.064a14.037 14.037 0 0 1 2.859 4.181 20.907 20.907 0 0 0 3.285 5.205c1.792 2.347 5.717 9.088 8.704 15.019l5.419 10.752 1.877 0.64 1.92 0.597v5.206l6.741 7.168c3.712 3.968 6.742 7.637 6.742 8.106 0 0.512 0.256 0.64 0.554 0.342 0.726-0.726 4.267 2.261 4.267 3.584 0 1.834 8.704 11.008 14.763 15.616 3.285 2.474 7.21 5.973 8.746 7.808l2.816 3.328 5.974 2.688a27.733 27.733 0 0 1 6.613 3.669c1.493 2.39 12.373 7.51 21.248 9.984l14.507 4.096c8.832 2.432 21.76 2.987 32.725 1.45z m-21.077-44.8l-7.595-1.28-5.248-2.688a42.07 42.07 0 0 1-8.96-6.358l-3.67-3.669-1.45-4.181-1.408-4.224 1.067-1.067c0.554-0.555 3.114-1.067 5.674-1.067h4.608v-0.896c0-0.512-3.114-1.877-6.954-2.986-12.544-3.755-21.931-8.747-21.931-11.691v-0.981l4.096 0.597c2.261 0.341 9.088 0.853 15.19 1.152l11.093 0.555 11.008-2.006c6.101-1.109 13.994-2.048 17.621-2.048h6.57l3.414-1.45a23.253 23.253 0 0 1 7.595-1.408h4.053l3.285 2.389c1.792 1.323 6.486 4.053 10.496 5.973l7.211 3.627h17.195l0.384 1.195 0.384 1.152-4.054 2.944a19.328 19.328 0 0 1-5.12 2.986 10.667 10.667 0 0 0-3.84 2.432l-2.73 2.39-0.427 3.114-0.427 3.072-4.693 4.438c-2.56 2.474-7.253 5.888-10.325 7.68l-5.632 3.242-14.422 0.214-14.464 0.213-7.594-1.323z m16.256-70.742l-7.68-0.682-4.352-1.92a19.968 19.968 0 0 1-5.632-3.499l-1.28-1.579 0.554-1.536c1.238-3.2 17.152-7.168 28.843-7.168h5.59l1.407-1.408c2.304-2.304 9.216 4.054 10.667 9.814l0.555 2.346-2.39 2.39c-3.968 4.01-9.6 4.693-26.282 3.242z m-91.563 102.272a474.453 474.453 0 0 0-39.339-27.861 150.059 150.059 0 0 1-9.642-6.741c-8.107-6.358-22.016-15.659-23.339-15.659h-1.408l1.707 2.987c2.73 4.608 19.328 20.096 27.306 25.429 8.363 5.59 41.003 22.4 43.776 22.528l1.878 0.085-0.939-0.768z m266.667-141.141l3.754-6.613v-3.03c0.086-1.706 0.683-4.224 1.408-5.632a13.099 13.099 0 0 0 1.323-4.821c0-1.237 0.683-3.499 1.493-5.077a10.24 10.24 0 0 0 1.238-4.822 5.76 5.76 0 0 1 0.469-3.157c0.427-0.64 0.853-6.87 1.024-13.824l0.256-12.63-3.712 0.598c-2.005 0.341-5.973 1.365-8.747 2.261l-5.034 1.707-2.134 7.68c-2.858 10.07-9.813 24.021-14.677 29.61-4.352 4.907-4.693 6.017-2.133 7.382 0.938 0.512 4.096 3.413 6.954 6.485l7.894 8.32 2.645 2.774 2.133-0.342 2.134-0.298 3.712-6.571z m-32.086-20.48a31.659 31.659 0 0 0 5.547-6.827l2.517-4.352 0.427-6.954 0.427-6.912-2.56-5.248c-2.304-4.523-5.675-8.534-7.254-8.619-0.298 0-0.341 5.419-0.17 12.032l0.341 12.075-2.517 7.552c-3.584 10.794-2.859 12.373 3.242 7.253z m-49.024-21.632l1.878-0.981v-6.059l-1.622-1.707c-1.962-2.218-4.906-2.304-7.253-0.213l-1.707 1.621v6.315l1.664 0.981c2.176 1.28 4.694 1.28 7.04 0.043z m-225.194-18.347l0.981-1.536-0.64-2.432c-1.152-4.65-6.741-4.096-7.936 0.726l-0.597 2.389 1.237 1.493 1.237 1.494 2.39-0.299c1.28-0.17 2.816-0.981 3.328-1.835z m291.157-50.346a14.165 14.165 0 0 1 3.84-1.835l1.92-0.47-3.541-0.127-3.499-0.128-0.555-1.408a2.347 2.347 0 0 0-2.005-1.451 1.45 1.45 0 0 0-1.493 1.45c0 0.769 0.426 1.409 0.981 1.409 0.512 0 0.939 0.853 0.939 1.962 0 2.262 0.81 2.39 3.413 0.598z m97.664 110.634l-0.427-13.44-0.298-6.698 1.066 1.834c0.555 1.024 1.238 6.272 1.451 11.648l0.427 9.814-1.024 1.792-1.067 1.792-0.128-6.742z" fill="#DDAFA2" p-id="10264"></path><path d="M496.555 937.515c-79.915-4.267-149.846-27.094-211.627-68.95-10.795-7.338-12.16-8.576-11.392-10.581 1.28-3.243 18.347-12.8 62.123-34.688 25.685-12.8 48.682-24.747 51.072-26.453l8.96-6.656c2.602-1.92 6.229-4.139 8.106-4.95l3.414-1.408 2.773 1.152 2.73 1.152 6.955-6.528c18.219-17.237 26.027-37.333 28.758-73.856l1.066-14.506-0.896-0.854-0.896-0.938-21.12-0.854c-11.605-0.469-25.429-1.28-30.72-1.792a401.365 401.365 0 0 0-25.045-1.28l-15.403-0.298-0.128 5.76c-0.042 3.2-0.17 6.4-0.213 7.125l-0.128 1.28-6.528-0.64a227.925 227.925 0 0 1-18.048-3.072c-8.96-1.835-17.92-3.584-26.965-5.205a1155.115 1155.115 0 0 1-34.987-7.126l-19.627-4.352-5.034-2.304-5.035-2.261-2.56-9.088-2.56-9.088v-17.365c0-9.558-0.683-27.094-1.45-38.998-0.854-13.141-1.707-26.282-2.433-39.424a1843.2 1843.2 0 0 0-2.048-30.72c-2.005-25.728-0.981-74.709 2.006-93.994 4.352-28.118 11.776-58.454 22.272-91.051 9.258-28.672 29.909-77.013 48.384-113.195 3.584-7.04 14.72-25.258 17.024-27.946 7.509-8.534 5.29-8.96-4.31-0.811l-7.509 6.4-1.536-0.981-1.579-1.024 0.171-2.304c0.299-4.694 14.379-23.723 30.635-41.472 12.245-13.398 24.576-24.192 41.216-36.011l11.818-8.448 17.494-8.96 17.493-9.045 15.744-5.163 15.701-5.163 10.624-1.792L473.9 87.04l27.946 0.085 27.904 0.086 12.075 3.072 12.032 3.114 11.52 5.846c12.8 6.4 13.653 6.997 27.136 18.304l9.387 7.85 7.765-2.816 7.765-2.816h20.224l5.803 3.542a39.85 39.85 0 0 1 13.312 12.586l1.621 2.56 13.696 6.742c7.552 3.669 18.475 9.898 24.32 13.781l10.539 7.04 9.685 9.088c21.76 20.48 35.84 42.624 43.52 68.267l2.475 8.362 0.725 14.464 0.768 14.464 2.432 7.211 6.742 19.755c4.48 12.8 10.112 36.565 12.373 52.01l1.28 8.662v51.114l-1.28 7.68c-0.64 4.267-1.579 8.79-2.048 10.112a182.187 182.187 0 0 1-10.795 25.003 17.237 17.237 0 0 0-2.73 6.827v2.56l2.474 2.261 2.432 2.304-2.816 2.133-2.773 2.219-0.64 3.157c-0.341 1.707-1.75 6.059-3.157 9.643l-2.518 6.443-3.114 3.413c-1.707 1.877-3.84 3.413-4.694 3.413h-1.536v-3.413c0-1.92 0.939-9.387 2.134-16.64l2.133-13.184v-35.627l-3.072-12.202c-14.421-57.387-59.008-113.536-124.33-156.63A364.032 364.032 0 0 1 608.17 253.1l-5.76-4.822-5.078-0.554-5.034-0.555-12.288 1.621c-38.827 4.992-85.59 28.928-107.478 54.955-1.749 2.133-5.674 6.528-8.661 9.813-7.552 8.235-8.704 9.899-16.981 24.491l-7.339 12.885-0.17 4.779-0.214 4.779 3.84 0.682c2.133 0.384 9.515 1.451 16.384 2.347l12.544 1.707 9.003 2.816 9.045 2.816 5.12 3.328 5.163 3.285 2.432 4.181 2.474 4.182v6.784l-2.005 2.56-2.005 2.517h-2.134c-1.152 0-6.57-1.536-12.032-3.413a191.573 191.573 0 0 0-36.949-9.088l-7.424-0.726-7.467 0.726-7.466 0.725-2.262 2.73a37.29 37.29 0 0 0-4.138 6.614l-1.835 3.84v11.776l2.859 4.01a22.187 22.187 0 0 0 3.328 3.969c10.538 0 33.578 7.808 44.544 15.061l7.893 5.248 6.272 6.827 6.272 6.912 3.968 7.808 3.925 7.765 1.024 6.955 1.024 6.954-0.64 3.499-0.64 3.413-1.45-1.152c-2.091-1.706-3.243-4.181-4.822-10.325-2.346-9.088-16-26.197-20.906-26.197h-1.366l2.432 6.485 2.39 6.528 0.128 8.192 0.085 8.192-2.688 7.253-2.645 7.254-4.182 5.077c-4.522 5.547-11.221 10.41-17.749 12.97l-4.139 1.665-10.538-0.64-10.539-0.64-3.968 1.749-3.925 1.792-1.579-1.024-1.621-0.981-0.256-3.499-0.299-3.499-2.048-1.45-2.09-1.451-2.262 2.133a32.939 32.939 0 0 0-4.992 7.936 30.976 30.976 0 0 1-4.821 7.68c-6.827 6.144-13.483 35.84-9.6 43.094 0.597 1.066 1.877 4.608 2.816 7.85 2.645 8.918 6.826 21.163 7.808 22.784 3.285 5.59 5.674 10.838 5.674 12.544 0 1.067 1.067 4.096 2.39 6.699l2.432 4.736-0.598 1.493c-1.194 3.115-10.368-0.853-23.424-10.197a24.533 24.533 0 0 0-6.485-3.712h-1.28v5.461l2.859 4.267c10.41 15.53 34.389 34.688 57.685 45.995 6.528 3.2 12.715 6.57 13.739 7.509 2.858 2.56 22.058 10.325 45.141 18.261l20.736 7.126 10.112 1.45c16 2.262 37.547 0.854 45.739-2.901 1.621-0.768 7.168-2.859 12.373-4.736a342.656 342.656 0 0 0 46.421-22.4c5.291-3.115 10.24-5.973 11.094-6.272 3.498-1.45 30.805-20.523 38.997-27.264 9.643-7.936 23.467-22.827 33.536-36.224 3.413-4.48 7.21-8.619 8.49-9.216a15.104 15.104 0 0 0 4.694-4.523c2.859-4.138 4.01-4.693 7.253-3.456 1.366 0.512 3.84 0.939 5.547 0.939 3.328 0.043 8.192 2.261 6.827 3.115a41.813 41.813 0 0 1-7.595 1.194c-3.712 0.342-7.51 0.854-8.448 1.11l-1.707 0.469v3.2c0 1.75-1.109 7.467-2.474 12.715-6.144 23.253-9.088 67.157-6.102 90.837l0.982 8.107-1.238 1.194-1.28 1.28-25.514 1.067-25.515 1.067-11.093-0.64c-9.216-0.512-49.366-3.627-76.8-5.974l-6.955-0.554-0.64 1.706c-1.067 2.774 1.28 32 3.413 41.899l1.878 9.173 3.328 7.254c4.138 8.96 8.192 14.549 13.226 18.176l3.84 2.816 3.67-0.512 3.669-0.47 10.624 4.907c5.803 2.688 11.563 4.907 12.8 4.907 1.195 0 7.68 1.109 14.336 2.474 14.08 2.859 37.333 6.4 56.021 8.534 24.363 2.773 30.934 5.205 42.923 15.786l8.32 7.424 3.797 6.23c2.262 3.712 4.694 7.381 7.126 10.965 5.205 7.339 4.992 7.637-14.806 21.504a406.016 406.016 0 0 1-165.162 68.181c-22.656 3.798-28.032 3.627-24.107-0.682a12.757 12.757 0 0 0 2.56-4.694l0.597-2.56-1.834-2.304-1.878-2.261-1.706 1.067a17.067 17.067 0 0 0-3.926 5.248 37.76 37.76 0 0 1-3.626 5.76c-0.811 0.853-1.451 2.048-1.451 2.602 0 2.475-29.61 4.608-49.11 3.542z m42.368-10.112c0-1.067 0.853-3.67 1.962-5.803l2.006-3.883 4.053-1.834a21.333 21.333 0 0 1 5.717-1.878c1.963 0 2.134-1.066 0.512-2.688l-1.152-1.152h-8.746l-3.115 1.878a14.976 14.976 0 0 0-4.693 4.949l-1.579 3.115 0.512 3.712c0.768 5.802 4.523 8.789 4.523 3.584z m16.853-38.443c42.027-4.608 61.781-22.613 65.579-59.776l0.64-6.357-1.195-7.083-1.195-7.083-2.56-2.346a200.96 200.96 0 0 0-19.712-14.379 101.76 101.76 0 0 1-9.216-6.741 78.55 78.55 0 0 0-6.912-5.248 50.048 50.048 0 0 1-7.85-8.192 62.976 62.976 0 0 0-9.302-9.472 88.021 88.021 0 0 1-6.826-5.547c-1.579-1.45-3.414-2.645-4.096-2.645-1.11 0-8.235-4.352-11.051-6.699a4.523 4.523 0 0 0-2.432-0.981 8.363 8.363 0 0 1-3.456-1.579 72.49 72.49 0 0 0-14.293-7.083 13.184 13.184 0 0 1-3.84-1.408 140.459 140.459 0 0 0-20.566-7.466 67.413 67.413 0 0 1-7.893-1.451l-6.4-1.493-3.712 2.261c-5.419 3.328-14.507 12.672-16.213 16.597a11.093 11.093 0 0 1-2.688 4.224 7.339 7.339 0 0 0-2.176 2.347 36.48 36.48 0 0 1-3.84 4.864 56.875 56.875 0 0 0-5.718 7.893c-2.986 5.12-20.736 23.168-28.032 28.502-7.509 5.546-12.714 10.88-14.336 14.762l-1.536 3.627 1.11 4.053c3.2 12.075 22.357 36.566 38.954 49.75 8.15 6.485 16.47 10.794 30.294 15.786l12.074 4.267 10.582 2.005c5.845 1.067 11.52 2.176 12.544 2.39 3.84 0.853 36.821 0.64 45.269-0.299zM419.669 473.13c2.304-2.09 2.219-5.631-0.213-8.02-2.475-2.475-3.413-2.433-6.272 0.426-5.29 5.29 0.939 12.587 6.443 7.595z m117.334 166.187l-6.187-0.896-5.803-2.773a35.968 35.968 0 0 1-8.661-5.76l-2.859-2.987 1.11-1.066a16.939 16.939 0 0 1 4.778-2.432l3.627-1.28 11.221 1.066 11.179 1.024 7.125-0.938c3.883-0.512 8.619-0.854 10.454-0.811l3.328 0.128 0.341-1.664 0.341-1.707H563.5c-1.92 0-6.4-0.426-9.942-0.938a1011.499 1011.499 0 0 0-18.986-2.475c-22.955-2.859-44.544-9.387-42.411-12.885l0.512-0.854 5.547 1.579 5.546 1.536h27.947l5.29-1.408 5.291-1.365 10.71 0.128 10.709 0.17 3.072 1.536c1.664 0.854 6.57 2.518 10.923 3.627l7.936 2.048 9.429-0.043 9.43-0.085-0.342 1.067c-0.555 1.621-6.57 4.394-14.293 6.528-9.387 2.602-14.08 6.997-8.32 7.808l2.133 0.298 0.341 1.622 0.299 1.578-2.901 3.286a31.83 31.83 0 0 1-8.022 5.845l-5.12 2.603-12.501-0.128a186.496 186.496 0 0 1-18.773-0.982z m137.386-107.733l-4.522-2.901-4.352 0.981-4.352 0.981-6.443-0.981a115.413 115.413 0 0 1-12.715-2.859l-6.272-1.877-4.01-4.139a58.923 58.923 0 0 1-7.083-9.386l-3.072-5.248-1.45-6.827-1.451-6.741 0.64-8.448 0.597-8.406h-0.981c-1.792 0-5.974 7.467-8.15 14.55-1.152 3.84-2.688 7.168-3.413 7.424l-1.237 0.426 0.384-7.125 0.384-7.125 2.944-6.23c7.381-15.701 25.6-30.762 44.202-36.565l6.742-2.133 10.666-0.555 10.624-0.512 6.656 1.152a32.81 32.81 0 0 1 7.68 1.963c0.555 0.426 2.56 1.45 4.566 2.261l3.626 1.536 2.774-2.39c1.578-1.28 3.328-2.346 3.968-2.346h1.109l-0.64 5.12-0.64 5.163 7.21 4.48c9.046 5.674 14.891 8.32 18.262 8.32l2.645 0.042v1.835c0 2.816-3.754 5.248-12.074 7.85l-7.467 2.347-1.195 1.92a45.099 45.099 0 0 0-2.858 8.96 33.707 33.707 0 0 1-3.328 9.131 69.973 69.973 0 0 0-4.395 7.21c-1.493 2.774-3.115 5.078-3.627 5.078h-0.896l0.598-1.579c0.341-0.853 1.066-3.498 1.706-5.888l1.067-4.266-0.555-6.4a55.168 55.168 0 0 0-2.688-12.246l-2.133-5.76-2.859-2.645c-2.816-2.603-9.813-5.419-10.922-4.352a26.539 26.539 0 0 0 2.048 8.107l2.56 7.509-0.427 10.112-0.427 10.155-2.133 5.418c-1.195 2.987-4.523 8.534-7.381 12.331l-5.163 6.912 1.621 0.555c0.939 0.341 2.432 1.28 3.371 2.048l1.707 1.45v5.504h-2.262a18.347 18.347 0 0 1-6.741-2.901z m-28.757-40.96l2.133-1.536v-6.57l-2.133-1.963c-2.645-2.475-5.973-2.518-8.448 0l-1.92 1.877v6.656l2.133 1.493c1.152 0.854 3.03 1.494 4.139 1.494a8.79 8.79 0 0 0 4.096-1.494z m48.213 38.613a13.312 13.312 0 0 1-4.01-3.84l-0.555-1.493 2.048-1.963a8.747 8.747 0 0 1 2.645-1.92c1.75 0.086 8.278 4.694 8.534 6.059l0.341 1.707-2.261 1.877c-2.816 2.347-2.56 2.347-6.699-0.427z m37.248-112.896c-9.984-6.016-18.048-8.96-34.688-12.586l-6.741-1.451-15.872-0.128-15.915-0.17-12.16 2.645a129.579 129.579 0 0 1-15.146 2.645h-2.987l-1.963-1.92-1.92-1.92v-8.363l2.134-3.242a32 32 0 0 1 15.488-11.094l4.992-1.578 12.074-0.512 12.118-0.47 10.069 1.707c5.547 0.853 14.507 2.901 19.883 4.395l9.813 2.73 7.51 4.48c7.85 4.608 17.834 12.288 23.21 17.792l3.115 3.2v2.518c0 5.802-4.779 6.314-13.014 1.28z" fill="#C68878" p-id="10265"></path><path d="M478.677 936.107a414.25 414.25 0 0 1-135.765-35.371c-27.733-12.373-68.907-37.632-68.907-42.155v-1.45l7.296-4.736c4.011-2.646 28.288-15.232 53.931-27.947 25.6-12.8 47.787-24.192 49.28-25.43 1.493-1.194 4.267-3.114 6.144-4.266 1.877-1.11 4.267-2.987 5.29-4.096 3.585-3.968 12.929-7.467 12.929-4.821 0 0.469-1.067 2.133-2.39 3.712-3.328 3.968-4.352 7.168-4.352 13.696v5.674l1.92 5.206c6.4 16.938 29.739 44.8 46.976 55.978 10.454 6.742 31.488 14.635 46.507 17.408l13.653 2.56 5.462 1.067 19.072-0.64c59.648-1.963 82.773-18.56 86.613-62.208l0.597-7.253-1.152-6.23a52.053 52.053 0 0 0-16.853-29.141l-3.84-3.541 2.987-0.043 2.986-0.043 8.96 4.438 8.96 4.437 6.315 0.853c3.499 0.427 10.667 1.707 15.957 2.816 10.923 2.304 21.248 3.84 43.862 6.699 21.973 2.73 31.402 4.565 37.546 7.339l5.206 2.389 5.418 5.035c2.987 2.73 6.486 5.973 7.894 7.082 1.365 1.152 4.309 5.035 6.528 8.662a195.205 195.205 0 0 0 7.296 11.264l3.328 4.693-1.024 1.835c-2.134 4.01-31.147 23.978-51.968 35.754-43.136 24.448-96.683 42.411-143.232 48.086-10.88 1.28-11.862 1.066-9.558-2.475l1.579-2.432v-4.395c0-5.248-1.75-8.96-5.845-12.373l-2.987-2.56h-3.541c-4.694 0-9.814 2.859-12.075 6.699l-1.835 3.072v7.722l1.878 2.518a10.07 10.07 0 0 0 2.986 2.901l1.195 0.384v-3.072c0-4.437 2.603-9.301 6.23-11.52 5.589-3.456 7.68-2.133 5.162 3.285l-1.11 2.475h-1.578c-0.853 0-2.517 0.683-3.712 1.493l-2.133 1.494 0.256 3.925 0.256 3.883-4.352 1.322-4.31 1.323-23.125-0.128c-12.715-0.043-27.477-0.427-32.853-0.853z m48.214-225.28l-6.742-0.555-3.712-3.37a46.72 46.72 0 0 0-5.034-4.14c-4.566-2.56 0.469-3.327 7.68-1.151 4.608 1.408 8.49 1.877 22.144 2.858a23.893 23.893 0 0 1 7.765 1.451c0.64 0.512 1.536 0.64 1.963 0.256l0.81-0.725-0.682 1.152-0.64 1.152 1.962-0.171 1.963-0.128-0.427-1.195-0.469-1.194 1.323 0.512 1.365 0.512-0.768 2.133-0.81 2.048h-1.793a6.997 6.997 0 0 0-2.986 0.853l-1.28 0.683v-0.853c0-0.427-1.152-0.726-2.603-0.555a95.19 95.19 0 0 1-19.03 0.427z m126.677-4.011a1874.205 1874.205 0 0 0-30.848-2.304c-27.52-1.963-48.384-4.267-49.536-5.376l-0.939-0.896 1.408-1.28c0.768-0.683 5.291-2.688 10.07-4.437 26.026-9.6 72.661-36.907 96.554-56.534 9.558-7.85 24.662-24.192 34.134-36.906l5.845-7.808 2.261-0.555a7.595 7.595 0 0 1 3.755 0l1.45 0.512v2.688c0 1.493-0.853 5.973-1.962 9.899a262.101 262.101 0 0 0-3.925 19.285l-1.963 12.032-0.853 23.595-0.768 23.594 0.853 6.742c0.47 3.712 0.853 8.832 0.853 11.349l0.086 4.565-1.238 0.128c-4.266 0.427-53.76 2.816-55.125 2.603l-10.112-0.896z m-310.187-9.088a286.55 286.55 0 0 1-16.853-3.328 397.781 397.781 0 0 0-19.499-3.84c-12.586-2.176-20.096-3.712-41.216-8.363l-15.36-3.413-3.882-2.09-3.84-2.049-2.859-8.192-2.859-8.192-0.17-19.285a1083.563 1083.563 0 0 0-3.371-72.235 797.227 797.227 0 0 1-3.157-73.685l-0.086-29.397 1.707-15.403c2.901-25.856 4.437-35.115 8.021-48.17 1.878-6.87 4.694-17.28 6.187-23.126 1.493-5.845 4.693-16.896 7.168-24.576 1.877-5.76 3.67-11.52 5.504-17.323 0.555-1.834 2.432-6.826 4.224-11.093a984.663 984.663 0 0 0 6.699-16.81c2.218-5.718 4.608-11.35 7.253-16.897 2.005-4.224 5.163-11.818 7.04-16.853 13.867-37.803 28.757-63.445 50.432-87.083 8.192-8.96 8.192-8.789-0.17-6.613l-6.486 1.707-1.365-1.878c-2.987-4.138-0.043-8.618 16.597-25.173 18.901-18.773 38.272-32.555 63.488-45.227l16-8.106 15.104-4.95 15.061-4.906 12.032-1.92L476.8 87.38l27.947 0.427 27.904 0.427 10.624 2.986 10.581 2.987 12.501 6.23 12.544 6.271 8.192 6.827 11.392 9.685c3.926 3.414 3.627 3.414 10.496 0.256l5.547-2.56 9.856-0.426c12.587-0.555 13.227-0.427 21.803 6.485l7.253 5.717 0.299 2.219 0.298 2.219 18.304 9.13 18.304 9.174 6.742 4.992 10.112 7.552c22.272 16.597 45.738 51.242 51.498 76.117l1.494 6.315 0.384 13.226 0.384 13.142 1.92 5.802c1.066 3.158 4.181 11.606 6.912 18.774 5.546 14.506 11.605 37.376 14.208 53.461l1.706 10.581v57.856l-1.237 5.675c-1.579 7.68-7.893 24.747-12.117 32.725l-3.499 6.528 0.085 3.542c0.214 7.424-6.826 26.922-11.093 30.976l-2.261 2.133-0.683-1.067c-0.341-0.597 0.512-9.6 1.963-20.053l2.56-19.03-0.47-15.914-0.469-15.872-3.03-10.41c-17.322-59.649-59.135-111.19-125.866-155.094a369.024 369.024 0 0 1-21.077-14.72l-5.547-4.565-4.48-0.854-4.48-0.853-14.421 1.11-14.507 1.066-11.093 2.73-11.094 2.731-13.44 5.76a238.507 238.507 0 0 0-42.965 23.467l-11.221 7.552-9.899 10.325c-8.533 8.96-13.824 15.318-22.528 27.136a86.784 86.784 0 0 1-4.437 5.376c-4.054 4.566-9.686 14.934-11.179 20.694l-1.408 5.29 1.579 1.152c0.853 0.64 4.906 1.408 8.96 1.707 4.053 0.299 13.653 1.237 21.333 2.133l13.995 1.536 7.68 2.39c16.725 5.162 25.472 13.056 24.405 21.973l-0.299 2.688-2.474 1.835-2.475 1.834-6.656-2.517a345.259 345.259 0 0 0-20.65-6.443l-13.995-3.968-16.854-0.426-16.853-0.427-4.053 1.067a21.376 21.376 0 0 0-6.912 3.498l-2.859 2.39-1.493 4.565c-0.854 2.517-1.963 6.87-2.475 9.728l-0.981 5.205 1.152 3.84 1.109 3.798 2.005 1.237 2.006 1.28 8.149 0.597c20.181 1.536 32.043 4.352 43.605 10.326l7.936 4.096 9.643 9.685 9.685 9.685 3.712 7.595 3.712 7.595 0.982 6.997c0.512 3.84 0.682 7.765 0.298 8.704l-0.64 1.707-1.408-1.408a21.333 21.333 0 0 1-2.858-6.955c-2.646-10.283-9.643-19.499-20.011-26.453-4.608-3.072-5.419-2.219-2.901 2.986 1.109 2.262 2.56 6.699 3.2 9.814l1.194 5.76-0.597 6.997-0.597 6.955-2.816 6.229A39.893 39.893 0 0 1 448 512.939l-4.48 1.536-9.557-1.11-9.6-1.109-3.84 1.152-3.84 1.152-1.494-1.195a4.437 4.437 0 0 1-1.493-2.986v-1.707l-5.163-4.95-5.205-4.949-3.2-6.912-3.2-6.954v-10.112c0.043-5.547 0.555-11.734 1.11-13.739 1.194-4.053 0.255-4.693-1.92-1.408-2.56 3.84-4.267 14.464-4.48 26.923l-0.086 7.466h-1.024a25.77 25.77 0 0 1-6.059-5.034l-5.034-5.078-3.84-9.386c-4.011-9.856-4.694-10.71-5.59-7.211-1.066 3.925-0.64 8.15 1.707 17.237 1.323 4.95 2.859 13.312 3.499 18.518l1.066 9.514-1.152 13.952-1.194 13.952 0.554 10.752 0.555 10.71 2.005 6.741c5.035 16.725 7.254 26.752 6.912 31.061-0.085 0.64-1.237 1.878-2.56 2.774l-2.432 1.578-3.754-1.706-3.712-1.664-1.195 0.725-1.152 0.725 0.512 3.627 0.47 3.67 3.2 4.693c12.415 18.218 36.18 37.717 61.226 50.218l11.69 5.846 1.963 2.474 1.963 2.518-0.555 5.504a19.627 19.627 0 0 1-1.621 6.826l-1.024 1.323-19.285-0.683c-10.624-0.384-22.614-1.066-26.667-1.536a507.307 507.307 0 0 0-26.71-1.493l-19.37-0.683-0.128 1.323a169.259 169.259 0 0 0-0.256 7.125l-0.085 5.76-1.451 0.171c-0.81 0.128-5.12-0.427-9.643-1.11z m76.587-224l1.75-1.877v-6.059l-1.793-1.28a7.893 7.893 0 0 0-3.968-1.323h-2.09l-1.536 2.134c-4.438 6.357 2.56 14.08 7.68 8.448z m143.019 142.507c-27.051-1.28-62.251-6.571-59.606-8.96 0.768-0.64 58.368 2.304 66.347 3.413 4.523 0.597 12.885 1.152 18.603 1.195l10.41 0.085-1.536 1.11c-1.578 1.151-10.325 2.9-17.322 3.498-2.134 0.17-9.728 0-16.896-0.341z m112.682-86.144l-1.237-1.494 1.024-1.024 1.024-1.024 2.005 0.683 2.048 0.64v3.712h-1.792a4.565 4.565 0 0 1-3.072-1.493z m-26.88-2.432a88.747 88.747 0 0 1-8.789-2.432l-4.565-1.494-4.352-4.65A42.07 42.07 0 0 1 620.8 499.84l-1.237-5.248 0.64-11.093 0.64-11.094-2.944 2.774c-2.902 2.773-8.662 13.098-8.662 15.53a2.56 2.56 0 0 1-1.109 1.92l-1.11 0.683 0.598-4.992 0.597-4.992 2.859-6.059 2.901-6.058 5.846-6.358c10.069-10.965 23.424-19.669 36.138-23.552l5.803-1.706h13.952l13.952-0.043 6.997 3.285 6.998 3.243 2.645-1.28c1.45-0.768 3.03-1.536 3.499-1.707l0.853-0.426-0.512 3.456-0.597 3.456 2.688 2.218c6.229 5.12 19.626 12.288 22.912 12.288 6.186 0 1.365 4.779-7.894 7.766a33.28 33.28 0 0 0-8.405 3.712l-1.707 1.578-1.92 7.595c-2.005 7.893-3.242 10.197-5.376 10.197h-1.28l-0.597-4.565c-1.024-7.893-4.139-17.067-7.253-21.333l-2.902-4.054-7.338-3.328a139.008 139.008 0 0 0-7.595-3.328c-0.213 0 1.45 3.67 3.584 8.15l3.925 8.192 1.024 7.125 1.024 7.125-1.194 6.784c-1.622 8.96-5.462 16.854-11.52 23.467l-4.95 5.419-4.352 2.048-4.309 2.005-6.528-0.085a76.373 76.373 0 0 1-10.752-0.939z m-3.968-36.011c4.438-2.304 5.163-6.4 1.92-10.496l-2.005-2.56h-6.528l-1.963 2.133-1.962 2.091v2.56c0 5.632 5.461 8.875 10.538 6.272z m48.47 34.987c-2.987-2.987-0.512-5.419 3.712-3.67l2.901 1.195-0.299 1.536-0.298 1.536-2.432 0.299c-1.28 0.128-2.944-0.256-3.584-0.939z m-302.123-17.792c-1.664-4.267 1.152-8.32 5.717-8.32h2.56l2.006 1.962 1.962 2.006-1.28 1.578c-3.2 3.84-9.898 5.547-10.965 2.816z m342.827-93.014c-13.27-8.746-33.024-14.506-56.96-16.725l-6.827-0.64-7.595 1.11a358.827 358.827 0 0 0-17.237 3.114 197.547 197.547 0 0 1-13.739 2.475l-4.138 0.426-1.536-1.28-1.494-1.28 0.427-4.65 0.427-4.694 3.797-3.84a30.635 30.635 0 0 1 16.939-9.002l6.058-1.451h19.542l10.922 1.877c23.296 4.011 34.091 8.832 50.432 22.443l9.174 7.595 0.554 2.304c1.195 4.608-3.413 5.802-8.746 2.261z" fill="#A66A5D" p-id="10266"></path><path d="M498.005 936.533c-61.61-3.114-114.048-16.213-164.736-41.13-21.674-10.667-51.925-28.971-56.789-34.347l-1.707-1.835 0.726-1.109c2.218-3.627 25.6-16 38.272-20.267 3.114-1.066 7.466-3.072 9.642-4.437 2.219-1.408 11.606-6.23 20.907-10.837a278.187 278.187 0 0 0 20.01-10.496c1.707-1.238 6.315-3.712 10.198-5.504a37.29 37.29 0 0 0 8.448-4.907 36.437 36.437 0 0 1 6.187-4.693c2.645-1.707 6.698-4.694 8.96-6.614 2.304-1.92 5.077-3.498 6.144-3.498h1.92l-2.518 2.986c-3.242 3.84-3.797 6.358-3.242 14.422l0.512 6.613 3.84 7.979a128.256 128.256 0 0 0 91.904 69.589c4.437 0.853 10.154 1.92 12.714 2.475 2.56 0.512 12.715 0.896 22.614 0.896h18.005l9.13-1.366c42.283-6.101 62.08-25.728 64.257-63.616l0.512-8.661-1.067-5.76a59.563 59.563 0 0 0-3.925-11.819l-2.816-6.058-5.035-5.291-4.992-5.29h1.493c0.854 0 5.206 1.962 9.728 4.351l8.192 4.31h3.2c1.75 0 7.296 0.896 12.374 2.005 13.61 2.859 48.042 8.32 60.672 9.557 22.784 2.304 27.733 4.182 39.594 15.019l8.107 7.424 3.413 5.888c1.878 3.243 4.822 7.765 6.486 10.112a16.64 16.64 0 0 1 3.072 5.973v1.707l-4.096 3.285c-49.494 39.68-129.963 72.96-191.915 79.318l-6.57 0.682 0.682-2.346c0.384-1.28 0.939-3.84 1.237-5.803l0.512-3.499-1.066-3.328a19.755 19.755 0 0 0-4.395-6.485l-3.243-3.157-4.224-0.47-4.181-0.469-3.456 1.45a18.005 18.005 0 0 0-6.101 4.865l-2.646 3.456 0.043 4.906 0.043 4.907 2.048 3.456 2.005 3.413-0.768 0.768c-0.853 0.854-28.33 1.792-38.315 1.28zM655.957 705.75c-47.445-2.944-79.104-5.802-80.64-7.338l-0.768-0.811 8.192-3.115c26.88-10.197 75.264-38.485 97.195-56.832a247.467 247.467 0 0 0 33.237-35.114l7.936-10.24h5.675v2.133c0 1.237-0.853 5.29-1.92 9.088-1.024 3.755-2.987 13.483-4.267 21.632l-2.346 14.805-0.256 22.187c-0.128 12.16 0.085 26.581 0.512 32l0.81 9.856-1.322 0.17a330.667 330.667 0 0 1-26.88 1.28c-11.392 0.3-21.334 0.683-22.144 0.811a180.992 180.992 0 0 1-13.014-0.512z m-314.752-9.514a329.088 329.088 0 0 1-17.792-3.627 220.885 220.885 0 0 0-14.72-2.987c-8.96-1.45-31.061-6.058-43.69-9.088l-9.472-2.304-2.56-1.877-2.56-1.92-0.256-2.304a55.765 55.765 0 0 0-2.304-8.107l-2.048-5.76 0.64-22.869 0.682-22.87-0.981-6.015c-1.493-8.875-2.987-26.027-3.925-44.118a216.533 216.533 0 0 0-1.878-21.162 153.003 153.003 0 0 1-1.536-18.347 7965.867 7965.867 0 0 0-0.853-25.515c-0.725-20.437 2.432-58.624 6.741-81.365 4.182-22.187 5.12-26.453 7.936-36.139a525.19 525.19 0 0 0 4.95-18.304c1.194-4.778 4.693-15.146 7.808-23.125 3.072-7.936 6.912-18.39 8.533-23.21a157.013 157.013 0 0 1 5.333-13.995c2.731-5.718 9.131-22.614 12.544-33.11 3.072-9.386 10.112-25.856 16.64-38.997l5.504-11.093 8.875-12.502 8.832-12.544 12.373-12.117c6.827-6.656 13.44-12.715 14.763-13.397 4.779-2.518 17.365-13.142 17.365-14.635 0-1.707-3.285-0.597-10.41 3.541l-7.424 4.31-4.566 0.64-4.565 0.597-1.45-1.195a5.248 5.248 0 0 1-1.451-3.584v-2.389l6.485-6.784c13.227-13.739 29.483-25.13 52.779-36.907l17.408-8.789 15.402-4.992 15.446-5.035 12.373-1.877 12.373-1.92 21.248 0.043c24.79 0.042 31.104 0.725 45.44 4.821l10.539 3.072 11.093 5.632 11.094 5.675 9.13 7.296c5.035 4.01 11.606 9.898 14.635 13.056 2.987 3.114 6.101 5.717 6.827 5.717 0.81 0 1.962 0.64 2.645 1.45 1.536 1.878 4.267 1.835 5.888-0.127l1.28-1.579-4.181-3.584-4.139-3.627 2.56-2.005c3.413-2.688 7.68-3.413 16.981-2.859l7.68 0.427 5.291 5.248 5.29 5.205-0.511 2.134-0.555 2.176 5.077 2.346c2.774 1.28 11.136 5.12 18.56 8.406l13.483 6.058 7.253 5.035 12.459 8.704c22.528 15.573 45.013 47.872 51.115 73.515l1.28 5.29-0.342 6.272c-0.213 4.48-0.341 8.96-0.384 13.483v7.21l4.608 9.643c16.64 34.56 23.894 65.11 25.174 106.454l0.597 19.712-1.45 10.666-1.451 10.667-3.84 11.947c-2.176 6.613-5.462 15.061-7.339 18.773a35.328 35.328 0 0 0-3.413 8.661c0 6.486-8.32 30.294-10.582 30.294h-1.066l0.554-4.054c1.792-13.226 3.414-29.866 3.926-41.173l0.597-13.013-1.536-7.382c-13.141-62.634-56.405-118.997-128.17-166.954a463.616 463.616 0 0 1-22.614-15.83 53.93 53.93 0 0 0-6.699-4.864l-2.304-1.237-18.858 0.597c-29.867 0.896-36.096 2.262-64.64 13.824a173.483 173.483 0 0 0-35.456 19.84c-2.987 2.304-9.6 6.912-14.635 10.283-15.872 10.581-41.216 37.248-48.427 50.901l-4.394 8.363a26.496 26.496 0 0 0-1.92 8.363l-0.427 5.461 3.285 0.512c1.792 0.256 10.667 0.725 19.712 1.024l16.512 0.597 10.667 1.792 10.752 1.792 6.144 2.859c6.016 2.816 17.323 9.259 21.547 12.245l2.176 1.536v7.552l-1.878 1.024-1.877 0.982-6.4-2.39a345.173 345.173 0 0 0-36.053-10.154 185.43 185.43 0 0 0-21.675-1.067l-16.384-0.085-9.173 1.706c-5.035 0.854-10.24 2.219-11.648 2.902-5.163 2.645-11.52 13.354-14.251 24.021-1.067 4.267-3.03 10.41-4.395 13.696a61.27 61.27 0 0 0-2.432 6.613c0 1.878 20.054-3.328 20.267-5.205 0.81-7.68 1.237-8.064 4.779-4.181l2.816 3.114 2.218-0.469a111.36 111.36 0 0 1 8.448-1.067l6.315-0.554 8.619 1.024c24.746 2.901 36.949 8.576 52.352 24.234l6.016 6.144 4.266 8.662 4.31 8.661 0.469 6.272 0.47 6.272-1.75-5.29c-3.925-11.777-9.813-19.158-21.76-27.094l-5.845-3.925-0.299 1.45a16.213 16.213 0 0 0 2.048 6.102c7.85 15.616 5.29 34.133-6.57 47.317l-4.48 4.992-5.974 2.901-5.93 2.944-15.36-0.426-15.36-0.342-0.427-1.28a44.843 44.843 0 0 0-5.974-7.168 35.968 35.968 0 0 1-10.538-18.602l-1.238-5.12 0.512-7.382a36.437 36.437 0 0 1 6.486-20.608c4.693-7.85 4.736-7.466-0.256-7.466h-4.096l-3.584 2.389-3.584 2.432-3.84 7.936c-2.091 4.352-4.566 10.752-5.462 14.208a35.755 35.755 0 0 1-2.432 7.125l-0.768 0.896-2.602-5.717-2.56-5.675-1.067-8.192-1.067-8.192-4.01-0.298-4.054-0.299-1.408 2.219c-6.613 10.581-7.552 74.325-1.493 107.221l1.92 10.581-0.299 6.272-0.256 6.272-2.176 0.299a4.95 4.95 0 0 0-3.242 2.304l-1.067 2.005 0.47 3.755 0.511 3.755 4.096 6.954c5.76 9.728 14.55 20.054 28.16 32.982l11.776 11.093 9.344 6.23c5.12 3.413 15.019 9.087 21.888 12.586l12.587 6.4 0.597 2.39a26.368 26.368 0 0 1-0.213 7.85l-0.853 5.419-16.896-0.299a356.139 356.139 0 0 1-25.046-1.237 483.03 483.03 0 0 0-28.501-1.536l-20.31-0.598-0.853 1.366a20.693 20.693 0 0 0-0.853 7.04v5.674l-0.981 0.256a92.8 92.8 0 0 1-11.307-1.578z m80.214-222.72l1.962-3.115-0.597-2.39c-0.853-3.498-3.243-5.802-6.016-5.802h-2.475l-2.218 2.133-2.219 2.091v7.253l2.133 1.494c1.195 0.853 3.371 1.493 4.822 1.493h2.688l1.962-3.115z m231.68 53.589a703.232 703.232 0 0 1-8.662-1.963l-6.698-1.578-4.694-4.395c-10.026-9.387-15.53-28.63-11.392-39.765 0.427-1.28 1.11-3.84 1.494-5.846l0.64-3.626h-1.451c-0.81 0-3.072 1.408-4.992 3.114l-3.541 3.115 1.706-3.328c8.32-16.085 33.024-30.507 55.126-32.213l7.936-0.598 6.528 1.024c3.584 0.598 9.344 2.304 12.8 3.84a26.88 26.88 0 0 0 8.149 2.646l1.963-0.256 0.256 1.962 0.298 1.92 9.344 6.059c5.12 3.328 11.179 6.57 13.44 7.168 6.4 1.75 5.291 3.2-5.034 6.528-8.662 2.816-9.643 3.84-11.947 12.373-2.73 9.856-4.181 10.496-5.376 2.347a58.24 58.24 0 0 0-2.645-9.685l-1.92-5.163-5.931-6.656-5.93-6.656-5.76-1.92c-5.633-1.835-8.235-2.347-10.966-2.133l-1.28 0.128 4.693 5.12c5.803 6.4 9.515 13.824 10.923 22.058l1.11 6.358-1.11 7.552-1.152 7.552-3.37 6.442a37.547 37.547 0 0 1-16.129 16.726l-4.778 2.389-4.864-0.128a52.48 52.48 0 0 1-6.827-0.512z m-5.547-36.565l2.133-2.39v-2.73a9.216 9.216 0 0 0-6.656-8.278l-2.816-0.597-2.261 1.195c-6.272 3.328-6.528 12.202-0.384 14.933l2.987 1.28 2.432-0.47a10.283 10.283 0 0 0 4.565-2.943z" fill="#47332F" p-id="10267"></path></svg>